<svg width="100" height="31" viewBox="0 0 100 31" fill="none" xmlns="http://www.w3.org/2000/svg">
<g clip-path="url(#clip0_2103_4507)">
<g clip-path="url(#clip1_2103_4507)">
<g clip-path="url(#clip2_2103_4507)">
<mask id="mask0_2103_4507" style="mask-type:luminance" maskUnits="userSpaceOnUse" x="1" y="0" width="97" height="30">
<path d="M97.8765 0.675781H1.53845V29.6812H97.8765V0.675781Z" fill="white"/>
</mask>
<g mask="url(#mask0_2103_4507)">
<path fill-rule="evenodd" clip-rule="evenodd" d="M61.3079 23.3601C55.7314 27.4828 47.621 29.6797 40.6252 29.6797C31.2937 29.7261 22.2801 26.2917 15.3456 20.0474C14.839 19.5743 15.2775 18.9316 15.9225 19.3043C22.6378 23.1689 30.1564 25.4268 37.8898 25.9017C45.6231 26.3765 53.3614 25.0552 60.4991 22.0412C61.4429 21.6708 62.2206 22.6885 61.3079 23.3601Z" fill="#05073C"/>
<path fill-rule="evenodd" clip-rule="evenodd" d="M63.6397 20.6903C62.9301 19.7776 58.909 20.2507 57.117 20.4872C56.5759 20.5553 56.4743 20.0822 56.982 19.7441C60.1932 17.4803 65.4305 18.1553 66.0397 18.8995C66.649 19.6437 65.8713 24.9157 62.8632 27.416C62.3901 27.7876 61.9505 27.5845 62.1536 27.078C62.8286 25.3887 64.3493 21.6364 63.6397 20.6903Z" fill="#05073C"/>
<path fill-rule="evenodd" clip-rule="evenodd" d="M57.2185 3.86026V1.66796C57.2147 1.59588 57.2261 1.52382 57.2519 1.45644C57.2777 1.38905 57.3175 1.32785 57.3685 1.27682C57.4195 1.22578 57.4808 1.18604 57.5482 1.16019C57.6156 1.13435 57.6876 1.12299 57.7597 1.12681H67.557C67.705 1.12306 67.8485 1.17772 67.9565 1.279C68.0645 1.38028 68.1281 1.52003 68.1339 1.66796V3.5268C68.1339 3.83141 67.8639 4.23643 67.3908 4.91143L62.322 12.1437C64.2536 12.0396 66.1786 12.4464 67.9031 13.323C68.0528 13.4086 68.178 13.5312 68.2667 13.6791C68.3553 13.8271 68.4046 13.9952 68.4097 14.1676V16.4995C68.4097 16.8376 68.0716 17.2091 67.7001 17.006C66.101 16.1784 64.3256 15.7491 62.525 15.755C60.7244 15.7608 58.9518 16.2015 57.3581 17.0395C57.2775 17.0683 57.1911 17.0773 57.1061 17.0655C57.0213 17.0537 56.9406 17.0215 56.8709 16.9718C56.8012 16.922 56.7445 16.8561 56.7058 16.7796C56.6671 16.7033 56.6474 16.6186 56.6485 16.533V14.2991C56.6153 13.7768 56.7451 13.2571 57.0201 12.8118L62.9047 4.3968H57.8012C57.6532 4.40055 57.5096 4.34589 57.4018 4.24461C57.2938 4.14332 57.23 4.00358 57.2243 3.85564L57.2185 3.86026ZM21.4966 17.4756H18.5185C18.3853 17.4623 18.2601 17.4055 18.1622 17.314C18.0645 17.2224 17.9995 17.1012 17.9774 16.9691V1.69796C17.9831 1.55003 18.0468 1.41028 18.1548 1.309C18.2628 1.20772 18.4063 1.15306 18.5543 1.15681H21.3235C21.4606 1.15868 21.592 1.21161 21.6922 1.3053C21.7922 1.39899 21.8538 1.52669 21.8647 1.66335V3.65718H21.9328C22.1958 2.83298 22.7143 2.11375 23.4129 1.60342C24.1116 1.09307 24.9543 0.818032 25.8195 0.818032C26.6846 0.818032 27.5275 1.09307 28.2262 1.60342C28.9247 2.11375 29.443 2.83298 29.7062 3.65718C30.0028 2.80746 30.5621 2.07424 31.3035 1.56387C32.0447 1.0535 32.9293 0.792516 33.8289 0.818736C34.4968 0.805263 35.158 0.951641 35.7578 1.24569C36.3576 1.53974 36.8783 1.97293 37.2766 2.50912C38.2228 3.79335 38.0197 5.65219 38.0197 7.30796V16.9737C38.0139 17.1216 37.9502 17.2614 37.8422 17.3627C37.7342 17.464 37.5908 17.5187 37.4428 17.5149H34.5028C34.362 17.5065 34.2292 17.4467 34.1295 17.347C34.0298 17.2473 33.9701 17.1145 33.9616 16.9737V8.86334C34.007 7.90524 33.9841 6.94515 33.8935 5.99027C33.8316 5.58379 33.6125 5.21789 33.2833 4.97143C32.9542 4.72496 32.5415 4.61766 32.1339 4.67258C31.746 4.68377 31.3698 4.80811 31.0516 5.03034C30.7335 5.25256 30.4871 5.56297 30.3431 5.92333C30.0983 6.88289 30.0071 7.87523 30.0731 8.86334V16.9737C30.0675 17.1216 30.0037 17.2614 29.8957 17.3627C29.7877 17.464 29.6443 17.5187 29.4962 17.5149H26.5228C26.382 17.5065 26.2492 17.4467 26.1495 17.347C26.0498 17.2473 25.9901 17.1145 25.9816 16.9737V8.86334C25.9816 7.17295 26.2516 4.63913 24.1562 4.63913C22.0274 4.63913 22.0943 7.07257 22.0943 8.86334V16.9737C22.0731 17.1182 21.9993 17.2498 21.8871 17.3433C21.7749 17.4368 21.6322 17.4856 21.4862 17.4803L21.4966 17.4756ZM76.5835 0.814123C81.0108 0.814123 83.4108 4.59873 83.4108 9.43219C83.4108 14.096 80.7743 17.8137 76.5835 17.8137C72.2578 17.8137 69.8912 14.0291 69.8912 9.29719C69.8578 4.53181 72.2566 0.814123 76.5835 0.814123ZM76.5835 3.95719C74.3912 3.95719 74.2516 6.96526 74.2516 8.82411C74.2516 10.683 74.2181 14.6706 76.5501 14.6706C78.8485 14.6706 78.9835 11.4595 78.9835 9.50026C79.0251 8.13452 78.8771 6.76964 78.5439 5.44451C78.4516 5.00194 78.2019 4.60782 77.8412 4.33521C77.4806 4.06259 77.0333 3.92995 76.5824 3.96181L76.5835 3.95719ZM89.1212 17.4756H86.1478C86.007 17.4672 85.8742 17.4075 85.7745 17.3076C85.6748 17.208 85.6151 17.0753 85.6066 16.9345V1.6299C85.6253 1.48998 85.6941 1.36156 85.8001 1.26844C85.9062 1.17531 86.0424 1.12376 86.1835 1.12333H88.9528C89.0785 1.12753 89.1996 1.1728 89.2973 1.25217C89.3949 1.33154 89.464 1.44067 89.4939 1.56295V3.89488H89.562C90.4066 1.79949 91.5558 0.819863 93.6178 0.819863C94.3038 0.788694 94.9861 0.937593 95.5967 1.25175C96.2075 1.56589 96.7253 2.03437 97.0989 2.61063C97.8766 3.82794 97.8766 5.88872 97.8766 7.37603V17.0083C97.8562 17.1446 97.7858 17.2685 97.6793 17.356C97.5727 17.4433 97.4373 17.4881 97.2997 17.4814H94.3262C94.1978 17.4693 94.0764 17.417 93.9794 17.3322C93.8822 17.2473 93.8143 17.134 93.7851 17.0083V8.69487C93.7851 7.00564 93.9881 4.57218 91.9262 4.57218C91.5528 4.58961 91.1923 4.71333 90.8868 4.92879C90.5815 5.14424 90.344 5.44245 90.2024 5.78833C89.8409 6.7128 89.6796 7.70348 89.7293 8.69487V16.9414C89.7106 17.0899 89.6386 17.2266 89.5268 17.3261C89.415 17.4257 89.2709 17.4812 89.1212 17.4826V17.4756ZM49.4116 10.1752C49.522 11.2636 49.335 12.3615 48.8705 13.3518C48.6819 13.7432 48.3904 14.0758 48.0272 14.3141C47.6639 14.5524 47.2426 14.6873 46.8085 14.7041C45.6547 14.7041 44.9831 13.8249 44.9831 12.5406C44.9831 10.0022 47.247 9.53259 49.4105 9.53259L49.4116 10.1752ZM52.4197 17.4445C52.3233 17.5286 52.2031 17.5804 52.0758 17.5926C51.9486 17.6049 51.8206 17.5768 51.7101 17.5126C51.0217 16.9555 50.438 16.2804 49.9862 15.5187C49.3969 16.2392 48.6461 16.8105 47.7947 17.1864C46.9433 17.5623 46.0153 17.7321 45.0858 17.6822C44.476 17.718 43.8656 17.6214 43.2967 17.3989C42.7278 17.1765 42.2138 16.8334 41.7899 16.3935C41.3661 15.9535 41.0425 15.4271 40.8414 14.8503C40.6404 14.2734 40.5666 13.6599 40.6251 13.0518C40.59 12.0124 40.8763 10.9875 41.4446 10.1166C42.013 9.24573 42.8361 8.57121 43.8016 8.1849C45.6156 7.58325 47.5028 7.23077 49.4116 7.13718V6.76566C49.5127 6.02346 49.3829 5.26815 49.0401 4.60218C48.8458 4.35025 48.5942 4.14826 48.3062 4.01301C48.0183 3.87776 47.7022 3.81314 47.3843 3.82448C46.8343 3.77648 46.2857 3.93246 45.8431 4.26266C45.4006 4.59288 45.095 5.07428 44.9843 5.61526C44.9162 5.88526 44.7535 6.1564 44.4778 6.1564L41.6047 5.85181C41.5353 5.84206 41.4686 5.81839 41.4085 5.78223C41.3485 5.74607 41.2965 5.69816 41.2554 5.64138C41.2143 5.5846 41.1851 5.52009 41.1697 5.45176C41.1541 5.38343 41.1526 5.31267 41.1651 5.24372C41.8412 1.72911 44.9843 0.681408 47.8228 0.681408C49.4539 0.611654 51.0545 1.14062 52.3228 2.16872C53.7755 3.52103 53.6405 5.34525 53.6405 7.30563V11.936C53.6594 12.9649 54.0565 13.9508 54.7562 14.7053C54.9593 14.9753 54.9928 15.3133 54.7562 15.483C54.1089 15.993 53.0255 16.9391 52.4197 17.4445ZM10.3781 10.1752C10.4886 11.2636 10.3016 12.3615 9.83698 13.3518C9.6485 13.7432 9.35698 14.0758 8.99371 14.3141C8.63045 14.5524 8.20917 14.6873 7.77508 14.7041C6.62123 14.7041 5.9497 13.8249 5.9497 12.5406C5.9497 10.0022 8.21353 9.53259 10.377 9.53259L10.3781 10.1752ZM13.3528 17.4445C13.2564 17.5286 13.1362 17.5804 13.0089 17.5926C12.8816 17.6049 12.7537 17.5768 12.6431 17.5126C11.9548 16.9555 11.3711 16.2804 10.9193 15.5187C10.33 16.2392 9.57922 16.8105 8.72779 17.1864C7.87635 17.5623 6.94829 17.7321 6.01891 17.6822C5.40908 17.718 4.79873 17.6214 4.22981 17.3989C3.66087 17.1765 3.14683 16.8334 2.723 16.3935C2.29918 15.9535 1.97561 15.4271 1.77453 14.8503C1.57346 14.2734 1.49965 13.6599 1.55815 13.0518C1.52312 12.0124 1.80928 10.9875 2.37769 10.1166C2.94611 9.24573 3.76912 8.57121 4.73468 8.1849C6.54861 7.58325 8.43586 7.23077 10.3447 7.13718V6.76566C10.4457 6.02346 10.316 5.26815 9.97316 4.60218C9.77887 4.35025 9.5273 4.14826 9.23935 4.01301C8.95138 3.87776 8.63531 3.81314 8.31736 3.82448C7.76729 3.77648 7.21878 3.93246 6.77622 4.26266C6.33366 4.59288 6.028 5.07428 5.91739 5.61526C5.84931 5.88526 5.68084 6.1564 5.41084 6.1564L2.53777 5.85181C2.46838 5.84206 2.40167 5.81839 2.34165 5.78223C2.28163 5.74607 2.22953 5.69816 2.18848 5.64138C2.14742 5.5846 2.11826 5.52009 2.10273 5.45176C2.08721 5.38343 2.08565 5.31267 2.09814 5.24372C2.77429 1.72911 5.91738 0.681408 8.75584 0.681408C10.387 0.611654 11.9875 1.14062 13.2558 2.16872C14.7085 3.52103 14.5735 5.34525 14.5735 7.30563V11.936C14.5926 12.9648 14.9897 13.9506 15.6893 14.7053C15.8924 14.9753 15.9258 15.3133 15.6893 15.483C15.0466 15.9895 13.9655 16.9356 13.3574 17.4445H13.3528Z" fill="#05073C"/>
</g>
</g>
</g>
</g>
<defs>
<clipPath id="clip0_2103_4507">
<rect width="100" height="30" fill="white" transform="translate(0 0.299805)"/>
</clipPath>
<clipPath id="clip1_2103_4507">
<rect width="100" height="30" fill="white" transform="translate(0 0.299805)"/>
</clipPath>
<clipPath id="clip2_2103_4507">
<rect width="96.9231" height="30" fill="white" transform="translate(1.53845 0.299805)"/>
</clipPath>
</defs>
</svg>
