<svg width="100" height="31" viewBox="0 0 100 31" fill="none" xmlns="http://www.w3.org/2000/svg">
<g clip-path="url(#clip0_2103_4468)">
<g clip-path="url(#clip1_2103_4468)">
<g clip-path="url(#clip2_2103_4468)">
<mask id="mask0_2103_4468" style="mask-type:luminance" maskUnits="userSpaceOnUse" x="0" y="3" width="100" height="25">
<path d="M99.2 3.64404H0V27.3043H99.2V3.64404Z" fill="white"/>
</mask>
<g mask="url(#mask0_2103_4468)">
<path d="M23.2988 25.7308H17.7964L16.1096 21.6718H6.94458L5.41084 25.7308H0L8.26626 5.22838H14.1892L23.2988 25.7308ZM11.3036 10.1272L8.29157 18.0935H14.6048L11.3036 10.1272ZM43.2831 5.22838H47.7325V25.7308H42.6217V12.9211L37.0904 19.3537H36.3084L30.7771 12.9211V25.7308H25.6626V5.22838H30.1205L36.6988 12.8344L43.2831 5.22838ZM60.6831 5.22838C68.1687 5.22838 72.0157 9.88741 72.0157 15.5091C72.0157 21.4007 68.2879 25.7308 60.112 25.7308H51.6337V5.22838H60.6831ZM56.747 21.973H60.0831C65.2241 21.973 66.7566 18.479 66.7566 15.4778C66.7566 11.9597 64.8626 8.985 60.0229 8.985H56.747V21.973ZM82.1831 10.0898L75.7385 3.64404H99.2V27.1067L92.7554 20.6621V10.0898H82.1831ZM82.1759 11.3814L75.5422 18.0164V27.3043H84.8289L91.4639 20.6694H82.1759V11.3814Z" fill="#05073C"/>
</g>
</g>
</g>
</g>
<defs>
<clipPath id="clip0_2103_4468">
<rect width="100" height="30" fill="white" transform="translate(0 0.299805)"/>
</clipPath>
<clipPath id="clip1_2103_4468">
<rect width="100" height="30" fill="white" transform="translate(0 0.299805)"/>
</clipPath>
<clipPath id="clip2_2103_4468">
<rect width="100" height="24.0964" fill="white" transform="translate(0 3.25146)"/>
</clipPath>
</defs>
</svg>
