<svg width="100" height="31" viewBox="0 0 100 31" fill="none" xmlns="http://www.w3.org/2000/svg">
<g clip-path="url(#clip0_2103_4476)">
<g clip-path="url(#clip1_2103_4476)">
<mask id="mask0_2103_4476" style="mask-type:luminance" maskUnits="userSpaceOnUse" x="0" y="5" width="100" height="20">
<path d="M99.6033 5.3208H0V24.7823H99.6033V5.3208Z" fill="white"/>
</mask>
<g mask="url(#mask0_2103_4476)">
<path fill-rule="evenodd" clip-rule="evenodd" d="M3.03356 7.15271C3.77804 6.50585 4.6432 6.01275 5.57915 5.70184C6.51511 5.39093 7.50336 5.26837 8.48693 5.34121C9.47045 5.41406 10.4299 5.68087 11.3098 6.12627C12.1897 6.57167 12.9728 7.18684 13.6139 7.93631C14.9924 9.33036 15.7976 11.191 15.8701 13.1502C15.9427 15.1093 15.2773 17.0244 14.0057 18.5166L8.12782 24.3945C6.95241 23.6109 4.9934 22.0437 5.777 20.4756C7.34422 18.5166 9.3016 16.9511 10.8713 14.9896C12.0467 13.4224 11.2631 10.2871 8.91226 9.89533C8.38472 9.71094 7.81869 9.66508 7.26836 9.76213C6.71804 9.8592 6.20184 10.0959 5.76922 10.4497C5.33661 10.8034 5.00205 11.2623 4.79761 11.7823C4.59316 12.3024 4.52567 12.8663 4.60159 13.4199C4.60159 15.3789 6.16881 16.5543 7.34422 17.7306C6.16881 18.906 4.60159 19.6896 4.60159 21.2552C3.42618 19.6879 1.46717 18.5125 0.682738 16.5527C-0.0336758 14.9488 -0.191405 13.1509 0.234787 11.4467C0.660979 9.74255 1.64646 8.23058 3.03356 7.15271Z" fill="#05073C"/>
<path fill-rule="evenodd" clip-rule="evenodd" d="M28.1122 7.15294C28.504 5.97753 29.6794 6.36933 30.463 6.36933V20.8636H28.1122V19.6915C27.1687 20.4521 25.9933 20.867 24.7814 20.867C23.5695 20.867 22.3941 20.4521 21.4507 19.6915C20.3654 18.7006 19.7154 17.3213 19.6421 15.8537C19.5687 14.386 20.0779 12.9487 21.0589 11.8546C21.941 10.8945 23.1409 10.2862 24.4367 10.1421C25.7325 9.99811 27.0366 10.328 28.1081 11.071L28.1122 7.15294ZM24.5876 12.2472C22.6286 12.639 21.063 15.3816 22.6286 17.3415C22.9213 17.7684 23.3212 18.111 23.7881 18.3345C24.255 18.5581 24.7726 18.6549 25.2887 18.6151C25.8049 18.5755 26.3015 18.4007 26.7288 18.1083C27.156 17.816 27.4988 17.4164 27.7228 16.9497C28.8958 14.9898 26.9359 12.2464 24.5851 12.2464L24.5876 12.2472Z" fill="#05073C"/>
<path fill-rule="evenodd" clip-rule="evenodd" d="M32.422 10.2871H34.7728V11.0707C35.5564 9.89526 37.1236 9.89526 38.6917 10.2871C38.2999 11.0707 37.9081 11.4625 37.9081 12.2461C36.3408 11.8543 34.7736 12.6379 34.7736 13.8133V19.6912C34.381 20.8707 33.2056 20.8707 32.422 20.8707V10.2871Z" fill="#05073C"/>
<path fill-rule="evenodd" clip-rule="evenodd" d="M42.2178 10.2879C46.1367 8.7207 50.0547 12.6387 49.267 16.5576C48.4793 20.4765 42.9973 22.4355 40.2506 19.692C37.1162 16.9494 38.2916 11.0715 42.2096 10.2879H42.2178ZM43.3932 12.2469C42.7352 12.4225 42.1352 12.7685 41.6536 13.25C41.1721 13.7315 40.8261 14.3315 40.6506 14.9896C40.5702 15.4366 40.5923 15.8961 40.7154 16.3333C40.8386 16.7706 41.0594 17.1742 41.3613 17.5136C41.6631 17.853 42.0381 18.1195 42.458 18.2928C42.8779 18.4661 43.3316 18.5418 43.785 18.5142C45.3522 18.5142 46.9195 17.3388 46.9195 15.7715C46.9195 13.8142 44.9613 11.8551 43.3949 12.2469H43.3932Z" fill="#05073C"/>
<path fill-rule="evenodd" clip-rule="evenodd" d="M50.8392 10.2871H53.1901V11.0708C54.2615 10.3278 55.5656 9.99789 56.8614 10.1419C58.1573 10.286 59.3572 10.8943 60.2392 11.8544C60.7237 12.3579 61.0996 12.9554 61.3441 13.61C61.5884 14.2645 61.696 14.9623 61.66 15.66C61.624 16.3577 61.4453 17.0407 61.135 17.6667C60.8246 18.2927 60.3892 18.8484 59.8556 19.2995C58.2884 21.2585 55.1532 21.2585 53.1941 20.0831V23.6077C52.8023 24.7831 51.6269 24.7831 50.8433 24.7831V10.2871H50.8392ZM55.9335 12.2462C53.5827 12.638 52.4089 15.3806 53.5827 16.9486C54.7581 18.9077 57.8933 18.9077 58.6769 16.9486C60.2433 14.9888 58.2843 12.2462 55.9335 12.2462Z" fill="#05073C"/>
<path fill-rule="evenodd" clip-rule="evenodd" d="M65.7293 10.6797C66.721 10.1236 67.8647 9.8996 68.993 10.0406C70.1212 10.1816 71.1746 10.6802 71.999 11.4633C71.6072 11.8551 71.2154 12.6387 70.4318 13.0305C70.0665 12.7346 69.6374 12.5277 69.1785 12.426C68.7196 12.3243 68.2433 12.3308 67.7872 12.4448C67.3312 12.5587 66.9078 12.7772 66.5507 13.0828C66.1936 13.3885 65.9124 13.773 65.7293 14.2059C65.559 14.6699 65.498 15.1669 65.551 15.6583C65.604 16.1498 65.7696 16.6223 66.0349 17.0393C66.3002 17.4563 66.6581 17.8066 67.0808 18.0627C67.5034 18.3189 67.9795 18.4743 68.4719 18.5166C69.2555 18.5166 70.0392 18.1248 70.8228 18.1248C71.5227 18.433 72.0818 18.9921 72.39 19.692C69.6474 22.0428 64.9449 21.2592 63.7695 17.733C62.2023 15.3813 63.3777 12.2453 65.7293 10.6797Z" fill="#05073C"/>
<path fill-rule="evenodd" clip-rule="evenodd" d="M72.3909 17.3406C71.2172 13.8143 73.9581 9.89551 77.4852 9.89551C78.8959 9.95708 80.2444 10.4939 81.3115 11.4187C82.3787 12.3436 83.1017 13.6021 83.3631 14.9897V20.8676C82.1877 20.8676 81.404 20.8676 80.6204 20.084C77.8778 22.043 73.5713 20.4758 72.3917 17.3414L72.3909 17.3406ZM77.4852 12.2463C76.9455 12.3479 76.4381 12.577 76.0049 12.9146C75.5719 13.2522 75.2259 13.6885 74.9958 14.1871C74.7658 14.6857 74.6583 15.2321 74.6824 15.7806C74.7065 16.3292 74.8615 16.8641 75.1344 17.3406C76.7016 19.2996 79.8368 18.9078 80.6204 16.9488C80.8211 16.4321 80.8944 15.8747 80.8343 15.3236C80.7741 14.7726 80.5822 14.2442 80.2746 13.7829C79.9672 13.3217 79.5531 12.9413 79.0676 12.6739C78.5821 12.4064 78.0394 12.2598 77.4852 12.2463Z" fill="#05073C"/>
<path fill-rule="evenodd" clip-rule="evenodd" d="M84.9303 10.2883H87.2811V11.0719C88.4565 9.50472 91.2 9.89653 92.7672 11.4637C94.7262 9.11292 98.6451 9.89653 99.4287 12.6391C99.8205 14.99 99.4287 17.7334 99.4287 20.0842C99.4287 20.8679 98.2532 20.8679 97.0778 20.8679C97.0778 18.517 97.4696 16.1654 97.0778 13.8187C97.0008 13.4073 96.7828 13.0356 96.4614 12.7682C96.1393 12.5008 95.7344 12.3544 95.3155 12.3544C94.8967 12.3544 94.4918 12.5008 94.1696 12.7682C93.8483 13.0356 93.6303 13.4073 93.5533 13.8187V20.8679H91.2024C91.2672 18.3797 91.136 15.8903 90.8106 13.4228C90.4188 11.8555 87.6762 12.2473 87.6762 13.8146C87.3508 16.1494 87.2196 18.5072 87.2844 20.8638H84.9303V10.2883Z" fill="#05073C"/>
</g>
</g>
</g>
<defs>
<clipPath id="clip0_2103_4476">
<rect width="100" height="30" fill="white" transform="translate(0 0.299805)"/>
</clipPath>
<clipPath id="clip1_2103_4476">
<rect width="100" height="20.4918" fill="white" transform="translate(0 5.05371)"/>
</clipPath>
</defs>
</svg>
