<svg width="100" height="31" viewBox="0 0 100 31" fill="none" xmlns="http://www.w3.org/2000/svg">
<g clip-path="url(#clip0_2103_4491)">
<g clip-path="url(#clip1_2103_4491)">
<g clip-path="url(#clip2_2103_4491)">
<mask id="mask0_2103_4491" style="mask-type:luminance" maskUnits="userSpaceOnUse" x="2" y="0" width="96" height="30">
<path d="M97.1092 0.675781H2.69226V29.3431H97.1092V0.675781Z" fill="white"/>
</mask>
<g mask="url(#mask0_2103_4491)">
<path d="M2.69226 20.9489V1.09578H6.17918V20.9489H2.69226ZM15.1065 6.54655C14.1198 6.52432 13.1387 6.69974 12.2209 7.0625C11.303 7.42525 10.4671 7.96799 9.76223 8.65876C9.05737 9.34954 8.49786 10.1744 8.11665 11.0847C7.73546 11.995 7.54026 12.9723 7.54257 13.9593C7.54488 14.9462 7.74464 15.9227 8.13011 16.8311C8.51557 17.7397 9.07894 18.5619 9.78702 19.2494C10.4951 19.9368 11.3336 20.4757 12.2531 20.8341C13.1726 21.1926 14.1546 21.3635 15.1411 21.3366C16.1199 21.3463 17.091 21.1615 17.998 20.7932C18.905 20.4248 19.7297 19.88 20.4246 19.1904C21.1193 18.5009 21.6704 17.6803 22.0456 16.7761C22.421 15.872 22.613 14.9024 22.6106 13.9235C22.6083 12.9445 22.4118 11.9759 22.0323 11.0735C21.6528 10.1711 21.098 9.35306 20.3999 8.66676C19.7019 7.98045 18.8745 7.43954 17.9658 7.07539C17.0572 6.71125 16.0853 6.53225 15.1065 6.54655ZM15.0661 9.90655C15.9899 9.90363 16.8861 10.2209 17.6021 10.8045C18.3182 11.388 18.81 12.2017 18.9936 13.107C19.1773 14.0123 19.0415 14.9533 18.6095 15.7697C18.1773 16.5861 17.4756 17.2276 16.6238 17.5848C15.7719 17.9422 14.8225 17.9932 13.9373 17.7292C13.0521 17.4653 12.2857 16.9027 11.7686 16.1372C11.2515 15.3718 11.0157 14.4508 11.1013 13.531C11.1869 12.6113 11.5886 11.7496 12.238 11.0927C12.9874 10.3399 14.0039 9.91357 15.0661 9.90655ZM31.4092 6.54655C30.4225 6.52432 29.4414 6.69974 28.5235 7.0625C27.6058 7.42525 26.7698 7.96799 26.0649 8.65876C25.36 9.34954 24.8005 10.1744 24.4193 11.0847C24.0382 11.995 23.843 12.9723 23.8453 13.9593C23.8476 14.9462 24.0473 15.9227 24.4328 16.8311C24.8183 17.7397 25.3816 18.5619 26.0897 19.2494C26.7978 19.9368 27.6363 20.4757 28.5558 20.8341C29.4753 21.1926 30.4573 21.3635 31.4438 21.3366C32.4292 21.3606 33.4091 21.1854 34.3252 20.8216C35.2412 20.4578 36.0743 19.9127 36.7747 19.2193C37.475 18.5257 38.0281 17.6979 38.4008 16.7855C38.7735 15.873 38.9582 14.8948 38.9438 13.9093C39.0416 12.5496 38.6372 11.2014 37.8073 10.12L38.7742 9.78885V6.95847H33.8276C33.0482 6.68838 32.2295 6.54919 31.4046 6.54655H31.4092ZM31.3688 9.90655C32.2925 9.90417 33.1884 10.2219 33.904 10.8057C34.6198 11.3896 35.1111 12.2034 35.2943 13.1087C35.4775 14.0139 35.3414 14.9548 34.9091 15.771C34.4768 16.5872 33.7749 17.2283 32.923 17.5853C32.0713 17.9423 31.122 17.9931 30.2369 17.729C29.3518 17.4648 28.5856 16.9022 28.0687 16.1368C27.5518 15.3713 27.316 14.4504 27.4018 13.5308C27.4874 12.6111 27.889 11.7495 28.5384 11.0927C29.2884 10.3393 30.3058 9.91296 31.3688 9.90655ZM35.4073 21.9158C35.4073 22.9832 34.9832 24.0068 34.2285 24.7616C33.4738 25.5164 32.4501 25.9404 31.3826 25.9404C30.3152 25.9404 29.2915 25.5164 28.5368 24.7616C27.7821 24.0068 27.358 22.9832 27.358 21.9158H23.8192C23.8027 22.9105 23.9894 23.8981 24.3681 24.8181C24.7466 25.738 25.3093 26.571 26.0212 27.2658C26.7331 27.9607 27.5795 28.5029 28.5083 28.8591C29.4371 29.2153 30.429 29.378 31.423 29.3373C32.4077 29.3625 33.3875 29.1884 34.3033 28.8256C35.2191 28.4628 36.0521 27.9188 36.7526 27.2261C37.453 26.5335 38.0063 25.7065 38.3792 24.7948C38.7523 23.883 38.9372 22.9053 38.923 21.9204L35.4073 21.9158ZM40.348 20.9454V6.95847H43.8361V20.9489L40.348 20.9454ZM47.2215 20.9454V10.0923H45.3511V6.95847H47.2215V2.6627H50.7084V6.95847H52.6296V10.0923H50.7084V20.9489L47.2215 20.9454ZM44.3934 2.98347C44.3934 3.4399 44.2581 3.88607 44.0045 4.26555C43.751 4.64505 43.3905 4.94084 42.9689 5.1155C42.5471 5.29017 42.0832 5.33586 41.6355 5.24682C41.1879 5.15778 40.7767 4.93799 40.454 4.61526C40.1312 4.29252 39.9114 3.88133 39.8223 3.43368C39.7334 2.98603 39.7791 2.52203 39.9536 2.10036C40.1283 1.67868 40.4242 1.31827 40.8037 1.0647C41.1832 0.811125 41.6293 0.675781 42.0857 0.675781C42.6977 0.675781 43.2847 0.918912 43.7175 1.35169C44.1503 1.78446 44.3934 2.37143 44.3934 2.98347ZM60.47 6.53732C59.4841 6.51732 58.5046 6.69884 57.5913 7.07075C56.6781 7.44267 55.8504 7.99714 55.159 8.70019C54.4676 9.40325 53.9271 10.2401 53.5705 11.1594C53.214 12.0787 53.0489 13.0612 53.0853 14.0466C53.045 15.0299 53.2116 16.0108 53.5745 16.9256C53.9373 17.8404 54.4884 18.6689 55.1919 19.3571C55.8954 20.0454 56.7356 20.5781 57.6581 20.921C58.5808 21.2638 59.565 21.4089 60.5473 21.347C61.7325 21.3845 62.912 21.1668 64.0058 20.709C65.0998 20.2511 66.0825 19.5637 66.8876 18.6931L64.5569 16.3589C63.5111 17.4541 62.1011 18.1296 60.5923 18.2581C59.7172 18.2925 58.8575 18.0212 58.1605 17.4909C57.4636 16.9605 56.9731 16.2041 56.773 15.3516H67.64V14.3916C67.64 10.5596 65.4223 6.53847 60.4757 6.53847L60.47 6.53732ZM60.3546 9.6077C61.2112 9.55844 62.0557 9.82913 62.7241 10.3673C63.3924 10.9054 63.8371 11.6726 63.9719 12.52H56.668C56.8395 11.6762 57.3046 10.9206 57.9806 10.3874C58.6567 9.85416 59.4998 9.5779 60.3603 9.6077H60.3546ZM76.3573 21.3481C75.3845 21.349 74.421 21.1584 73.5219 20.7871C72.6227 20.4157 71.8056 19.871 71.1171 19.1837C69.7264 17.7959 68.944 15.9126 68.9421 13.9479C68.9401 11.9833 69.7186 10.0983 71.1065 8.70767C72.4942 7.31705 74.3776 6.5347 76.3423 6.5327C77.4845 6.52416 78.6142 6.77084 79.6488 7.25473C80.6835 7.73863 81.597 8.44752 82.3226 9.32962L79.8846 11.7527C79.449 11.2192 78.9074 10.7819 78.294 10.4685C77.6807 10.1551 77.0091 9.97241 76.3215 9.93193C75.792 9.91875 75.2651 10.013 74.773 10.2089C74.2808 10.4048 73.8335 10.6983 73.4578 11.0718C73.0822 11.4453 72.786 11.891 72.5873 12.382C72.3886 12.873 72.2913 13.3993 72.3015 13.9289C72.2881 14.4596 72.3818 14.9878 72.5769 15.4816C72.772 15.9756 73.0646 16.425 73.4372 16.8035C73.8097 17.1818 74.2547 17.4812 74.7455 17.6841C75.2362 17.8868 75.7628 17.9886 76.2938 17.9835C76.9865 17.9475 77.664 17.7667 78.2824 17.4526C78.9009 17.1386 79.4467 16.6983 79.8846 16.1604L82.3423 18.5835C81.6145 19.4627 80.6992 20.1678 79.6633 20.647C78.6273 21.1262 77.4974 21.3674 76.3561 21.3527L76.3573 21.3481ZM83.6126 20.9593V1.04501H87.0996V8.36155C87.6241 7.7585 88.2776 7.28112 89.0116 6.96476C89.7456 6.64838 90.5414 6.50112 91.34 6.53385C94.9919 6.53385 97.1092 9.24885 97.1092 12.7208V20.9593H93.6153V13.2527C93.6677 12.8272 93.6265 12.3954 93.4948 11.9875C93.3629 11.5796 93.1435 11.2054 92.852 10.8911C92.5604 10.5768 92.2037 10.3299 91.8068 10.1679C91.4099 10.0058 90.9824 9.93235 90.5542 9.9527C90.0885 9.91567 89.6204 9.98047 89.1823 10.1426C88.7441 10.3047 88.3465 10.5603 88.0171 10.8916C87.6878 11.2228 87.4344 11.6218 87.2748 12.0608C87.1151 12.4998 87.053 12.9684 87.0927 13.4339V20.965H83.6126V20.9593Z" fill="#05073C"/>
</g>
</g>
</g>
</g>
<defs>
<clipPath id="clip0_2103_4491">
<rect width="100" height="30" fill="white" transform="translate(0 0.299805)"/>
</clipPath>
<clipPath id="clip1_2103_4491">
<rect width="100" height="30" fill="white" transform="translate(0 0.299805)"/>
</clipPath>
<clipPath id="clip2_2103_4491">
<rect width="94.6154" height="30" fill="white" transform="translate(2.69226 0.299805)"/>
</clipPath>
</defs>
</svg>
