<svg width="100" height="31" viewBox="0 0 100 31" fill="none" xmlns="http://www.w3.org/2000/svg">
<g clip-path="url(#clip0_2103_4499)">
<g clip-path="url(#clip1_2103_4499)">
<g clip-path="url(#clip2_2103_4499)">
<mask id="mask0_2103_4499" style="mask-type:luminance" maskUnits="userSpaceOnUse" x="0" y="0" width="99" height="31">
<path d="M98.9 0.625488H0.5V30.1375H98.9V0.625488Z" fill="white"/>
</mask>
<g mask="url(#mask0_2103_4499)">
<path d="M15.256 0.625488C12.3376 0.625685 9.48474 1.49127 7.05826 3.1128C4.63178 4.73433 2.74062 7.03898 1.62393 9.7353C0.507236 12.4316 0.215161 15.3985 0.784638 18.2608C1.35411 21.1232 2.75957 23.7523 4.82327 25.8159C6.88697 27.8795 9.51624 29.2847 12.3786 29.854C15.241 30.4233 18.2078 30.131 20.9041 29.0142C23.6003 27.8973 25.9049 26.006 27.5262 23.5794C29.1476 21.1528 30.013 18.2999 30.013 15.3815C30.013 13.4436 29.6313 11.5247 28.8897 9.73438C28.148 7.94403 27.061 6.3173 25.6907 4.94706C24.3204 3.57683 22.6936 2.48993 20.9032 1.74843C19.1128 1.00694 17.1939 0.625356 15.256 0.625488ZM22.023 21.9075C21.9596 22.0103 21.8767 22.0996 21.7788 22.1703C21.681 22.241 21.5701 22.2917 21.4526 22.3196C21.3352 22.3475 21.2134 22.3519 21.0942 22.3327C20.975 22.3134 20.8607 22.2709 20.758 22.2075C17.293 20.0915 12.932 19.6075 7.79498 20.7855C7.55708 20.8397 7.30738 20.7972 7.10081 20.6674C6.89424 20.5375 6.74772 20.3309 6.69348 20.093C6.63925 19.8551 6.68174 19.6054 6.8116 19.3988C6.94147 19.1922 7.14808 19.0457 7.38598 18.9915C13.007 17.7075 17.829 18.2605 21.718 20.6375C21.8218 20.7005 21.912 20.7835 21.9836 20.8815C22.0552 20.9796 22.1066 21.0909 22.135 21.209C22.1633 21.327 22.168 21.4495 22.1488 21.5694C22.1296 21.6893 22.0868 21.8042 22.023 21.9075ZM23.829 17.8895C23.6695 18.1495 23.4133 18.3357 23.1166 18.4069C22.82 18.4782 22.5072 18.4287 22.247 18.2695C17.768 15.7724 12.4816 15.1535 7.54698 16.5485C7.25525 16.6377 6.94 16.6074 6.67061 16.4642C6.40121 16.3211 6.19973 16.0767 6.11048 15.785C6.02124 15.4932 6.05154 15.178 6.19472 14.9086C6.33791 14.6392 6.58224 14.4377 6.87398 14.3485C9.62784 13.5557 12.5123 13.3207 15.3581 13.6572C18.204 13.9938 20.954 14.8952 23.447 16.3085C23.5758 16.3874 23.6877 16.491 23.7765 16.6133C23.8653 16.7355 23.929 16.874 23.9642 17.021C23.9994 17.1679 24.0053 17.3203 23.9816 17.4695C23.9579 17.6187 23.905 17.7617 23.826 17.8905L23.829 17.8895ZM23.984 13.7055C19.228 10.8805 11.384 10.6205 6.84098 11.9995C6.66648 12.056 6.48246 12.0771 6.2997 12.0616C6.11693 12.0462 5.93908 11.9944 5.77655 11.9094C5.61401 11.8244 5.47005 11.7079 5.35308 11.5666C5.2361 11.4253 5.14847 11.2622 5.09529 11.0866C5.04212 10.9111 5.02447 10.7267 5.04339 10.5443C5.0623 10.3618 5.11739 10.185 5.20544 10.0241C5.29349 9.86317 5.41273 9.72143 5.5562 9.60715C5.69966 9.49288 5.86447 9.40833 6.04098 9.35848C11.253 7.77648 19.918 8.08148 25.394 11.3325C25.5499 11.4249 25.686 11.5472 25.7946 11.6922C25.9033 11.8373 25.9823 12.0024 26.0271 12.178C26.072 12.3535 26.0818 12.5363 26.056 12.7156C26.0303 12.895 25.9694 13.0676 25.877 13.2235C25.7845 13.3794 25.6623 13.5155 25.5172 13.6241C25.3722 13.7328 25.2071 13.8118 25.0315 13.8566C24.8559 13.9015 24.6732 13.9113 24.4938 13.8855C24.3144 13.8598 24.1419 13.7989 23.986 13.7065L23.984 13.7055ZM40.647 14.2485C38.099 13.6405 37.647 13.2145 37.647 12.3185C37.647 11.4715 38.447 10.9025 39.629 10.9025C40.9037 10.948 42.1277 11.4131 43.111 12.2255C43.1289 12.2387 43.1492 12.2482 43.1708 12.2535C43.1923 12.2587 43.2148 12.2597 43.2367 12.2562C43.2587 12.2528 43.2797 12.245 43.2986 12.2334C43.3176 12.2218 43.334 12.2065 43.347 12.1885L44.591 10.4345C44.6156 10.3997 44.626 10.3568 44.6201 10.3146C44.6141 10.2724 44.5923 10.2341 44.559 10.2075C43.1804 9.07986 41.4467 8.47751 39.666 8.50748C36.915 8.50748 34.993 10.1585 34.993 12.5205C34.993 15.0535 36.651 15.9505 39.516 16.6425C41.953 17.2045 42.365 17.6745 42.365 18.5155C42.365 19.4475 41.533 20.0275 40.194 20.0275C38.6752 20.0158 37.2203 19.4149 36.136 18.3515C36.1021 18.3226 36.0584 18.308 36.014 18.3105C35.9919 18.3119 35.9703 18.3178 35.9506 18.3278C35.9308 18.3378 35.9133 18.3516 35.899 18.3685L34.499 20.0285C34.4709 20.0618 34.4569 20.1047 34.4599 20.1482C34.4629 20.1917 34.4826 20.2323 34.515 20.2615C36.0533 21.6552 38.0572 22.4232 40.133 22.4145C43.097 22.4145 45.012 20.7955 45.012 18.2875C45.017 16.1715 43.75 14.9995 40.647 14.2455H40.642L40.647 14.2485ZM51.723 11.7355C51.1053 11.7274 50.4941 11.8625 49.9373 12.1302C49.3806 12.3979 48.8934 12.791 48.514 13.2785V12.1105C48.5141 12.0886 48.5099 12.0669 48.5016 12.0467C48.4934 12.0264 48.4811 12.008 48.4657 11.9925C48.4503 11.9769 48.4319 11.9646 48.4117 11.9562C48.3915 11.9478 48.3699 11.9435 48.348 11.9435H46.067C46.0451 11.9435 46.0234 11.9478 46.0032 11.9562C45.983 11.9646 45.9647 11.9769 45.9492 11.9925C45.9338 12.008 45.9216 12.0264 45.9133 12.0467C45.905 12.0669 45.9008 12.0886 45.901 12.1105V25.0795C45.901 25.1236 45.9184 25.1659 45.9495 25.1972C45.9806 25.2285 46.0229 25.2462 46.067 25.2465H48.347C48.3911 25.2462 48.4333 25.2285 48.4644 25.1972C48.4955 25.1659 48.513 25.1236 48.513 25.0795V20.9865C48.9064 21.4517 49.3985 21.8235 49.9536 22.0746C50.5087 22.3258 51.1128 22.4501 51.722 22.4385C54.11 22.4385 56.527 20.6005 56.527 17.0875C56.527 13.5745 54.113 11.7345 51.727 11.7345L51.723 11.7355ZM53.875 17.0875C53.9149 17.4662 53.8758 17.8492 53.76 18.212C53.6442 18.5748 53.4544 18.9097 53.2024 19.1953C52.9505 19.4809 52.6419 19.711 52.2964 19.8712C51.9508 20.0313 51.5758 20.1179 51.195 20.1255C50.8133 20.1133 50.438 20.0241 50.0916 19.8632C49.7453 19.7024 49.4349 19.4732 49.1793 19.1895C48.9237 18.9058 48.7281 18.5733 48.6041 18.2121C48.4801 17.8509 48.4304 17.4684 48.458 17.0875C48.4303 16.7065 48.4799 16.3239 48.6038 15.9625C48.7277 15.6012 48.9233 15.2686 49.1789 14.9848C49.4346 14.701 49.7449 14.4717 50.0914 14.3108C50.4378 14.1499 50.8132 14.0607 51.195 14.0485C51.5742 14.0605 51.947 14.15 52.2904 14.3115C52.6337 14.4731 52.9404 14.7032 53.1915 14.9877C53.4425 15.2722 53.6327 15.6051 53.7503 15.9659C53.8678 16.3266 53.9102 16.7077 53.875 17.0855V17.0875ZM62.722 11.7355C61.6653 11.7554 60.6381 12.087 59.7694 12.6888C58.9006 13.2905 58.2289 14.1356 57.8388 15.1177C57.4487 16.0999 57.3574 17.1755 57.5765 18.2093C57.7956 19.2432 58.3153 20.1893 59.0702 20.9288C59.8252 21.6683 60.7819 22.1683 61.8201 22.3659C62.8583 22.5636 63.9317 22.45 64.9056 22.0397C65.8795 21.6293 66.7104 20.9403 67.294 20.0592C67.8777 19.1782 68.188 18.1443 68.186 17.0875C68.1824 16.3762 68.0378 15.6727 67.7605 15.0177C67.4832 14.3627 67.0788 13.7691 66.5707 13.2714C66.0626 12.7737 65.4608 12.3817 64.8001 12.118C64.1395 11.8544 63.4332 11.7244 62.722 11.7355ZM62.722 20.1435C62.3303 20.1399 61.9434 20.0569 61.5846 19.8997C61.2258 19.7424 60.9026 19.5141 60.6345 19.2285C60.3664 18.9429 60.1589 18.606 60.0246 18.238C59.8903 17.87 59.8319 17.4786 59.853 17.0875C59.8276 16.7002 59.8821 16.3119 60.013 15.9465C60.1439 15.5812 60.3485 15.2466 60.614 14.9636C60.8795 14.6805 61.2003 14.455 61.5566 14.3011C61.9128 14.1471 62.2969 14.0679 62.685 14.0685C63.0778 14.0712 63.466 14.1535 63.8262 14.3102C64.1863 14.467 64.5111 14.6951 64.7807 14.9808C65.0504 15.2664 65.2594 15.6037 65.3952 15.9723C65.5311 16.3409 65.5908 16.7332 65.571 17.1255C65.5954 17.5139 65.5397 17.9032 65.4074 18.2692C65.275 18.6352 65.0689 18.97 64.8017 19.253C64.5346 19.536 64.2121 19.7611 63.8544 19.9143C63.4966 20.0675 63.1112 20.1455 62.722 20.1435ZM74.752 11.9435H72.241V9.37648C72.2411 9.3546 72.2369 9.33291 72.2286 9.31265C72.2204 9.29239 72.2081 9.27398 72.1927 9.25846C72.1773 9.24294 72.1589 9.23063 72.1387 9.22221C72.1185 9.21381 72.0969 9.20949 72.075 9.20949H69.794C69.7498 9.20975 69.7075 9.22742 69.6762 9.25869C69.6449 9.28995 69.6272 9.33227 69.627 9.37648V11.9435H68.527C68.5051 11.9435 68.4834 11.9478 68.4632 11.9562C68.443 11.9646 68.4247 11.9769 68.4092 11.9925C68.3938 12.008 68.3816 12.0264 68.3733 12.0467C68.3651 12.0669 68.3609 12.0886 68.361 12.1105V14.0715C68.361 14.1156 68.3784 14.1579 68.4095 14.1892C68.4407 14.2205 68.4829 14.2382 68.527 14.2385H69.627V19.3125C69.627 21.3615 70.647 22.4015 72.661 22.4015C73.4079 22.4194 74.1457 22.2356 74.797 21.8695C74.8228 21.8554 74.8444 21.8346 74.8594 21.8092C74.8743 21.7839 74.8821 21.7549 74.882 21.7255V19.8565C74.8819 19.8282 74.8746 19.8004 74.8608 19.7757C74.847 19.751 74.8271 19.7303 74.803 19.7155C74.779 19.7002 74.7514 19.6915 74.7229 19.6903C74.6945 19.689 74.6662 19.6953 74.641 19.7085C74.2273 19.9225 73.7678 20.033 73.302 20.0305C72.571 20.0305 72.243 19.6975 72.243 18.9535V14.2395H74.754C74.7759 14.2395 74.7975 14.2352 74.8177 14.2268C74.8379 14.2183 74.8563 14.206 74.8717 14.1905C74.8871 14.175 74.8994 14.1566 74.9076 14.1363C74.9159 14.1161 74.9201 14.0944 74.92 14.0725V12.1125C74.9207 12.0906 74.9169 12.0689 74.9089 12.0485C74.901 12.0281 74.889 12.0096 74.8736 11.994C74.8583 11.9784 74.84 11.966 74.8198 11.9577C74.7996 11.9494 74.7779 11.9452 74.756 11.9455L74.752 11.9435ZM83.499 11.9535V11.6385C83.499 10.7115 83.855 10.2975 84.651 10.2975C85.09 10.3027 85.5249 10.3828 85.937 10.5345C85.9621 10.5429 85.9889 10.5453 86.015 10.5413C86.0412 10.5373 86.0661 10.5271 86.0875 10.5115C86.109 10.4959 86.1264 10.4755 86.1383 10.4518C86.1502 10.4281 86.1562 10.402 86.156 10.3755V8.44848C86.1564 8.41261 86.1451 8.37759 86.1238 8.34872C86.1025 8.31985 86.0724 8.2987 86.038 8.28848C85.4224 8.10053 84.7815 8.00878 84.138 8.01648C82.032 8.01648 80.917 9.20348 80.917 11.4465V11.9295H79.817C79.7728 11.9297 79.7305 11.9474 79.6992 11.9787C79.6679 12.0099 79.6502 12.0523 79.65 12.0965V14.0675C79.6502 14.1117 79.6679 14.154 79.6992 14.1853C79.7305 14.2165 79.7728 14.2342 79.817 14.2345H80.917V22.0595C80.917 22.1038 80.9346 22.1463 80.9659 22.1776C80.9972 22.2089 81.0397 22.2265 81.084 22.2265H83.364C83.3859 22.2266 83.4077 22.2224 83.4281 22.214C83.4484 22.2057 83.4668 22.1934 83.4824 22.1779C83.4979 22.1623 83.5102 22.1439 83.5185 22.1235C83.5269 22.1032 83.5311 22.0815 83.531 22.0595V14.2395H85.661L88.924 22.0635C88.554 22.8845 88.189 23.0485 87.692 23.0485C87.2491 23.0375 86.8163 22.9143 86.434 22.6905C86.3931 22.67 86.3459 22.6657 86.302 22.6785C86.28 22.6857 86.2597 22.6974 86.2425 22.7129C86.2252 22.7284 86.2114 22.7473 86.202 22.7685L85.428 24.4685C85.4101 24.507 85.4077 24.5509 85.421 24.5912C85.4344 24.6315 85.4626 24.6653 85.5 24.6855C86.2418 25.1061 87.0823 25.3215 87.935 25.3095C89.62 25.3095 90.552 24.5235 91.371 22.4095L95.337 12.1815C95.3468 12.1564 95.3505 12.1292 95.3475 12.1024C95.3446 12.0755 95.3352 12.0498 95.3202 12.0274C95.3052 12.005 95.2849 11.9866 95.2612 11.9737C95.2375 11.9608 95.211 11.9539 95.184 11.9535H92.808C92.7731 11.9532 92.739 11.9639 92.7105 11.9839C92.682 12.004 92.6605 12.0325 92.649 12.0655L90.216 19.0145L87.547 12.0615C87.535 12.03 87.5138 12.003 87.4861 11.9839C87.4585 11.9648 87.4256 11.9545 87.392 11.9545H83.492L83.499 11.9535ZM78.428 11.9435H76.147C76.1028 11.9437 76.0605 11.9614 76.0292 11.9927C75.9979 12.0239 75.9802 12.0663 75.98 12.1105V22.0625C75.98 22.0844 75.9843 22.1061 75.9927 22.1264C76.0011 22.1467 76.0134 22.1651 76.0289 22.1806C76.0444 22.1961 76.0628 22.2084 76.0831 22.2168C76.1033 22.2252 76.1251 22.2295 76.147 22.2295H78.429C78.4509 22.2295 78.4726 22.2252 78.4929 22.2168C78.5132 22.2084 78.5316 22.1961 78.5471 22.1806C78.5626 22.1651 78.5749 22.1467 78.5833 22.1264C78.5917 22.1061 78.596 22.0844 78.596 22.0625V12.1115C78.596 12.0672 78.5784 12.0247 78.5471 11.9934C78.5158 11.9621 78.4733 11.9445 78.429 11.9445L78.428 11.9435ZM77.3 7.41148C76.9764 7.41129 76.6601 7.50704 76.3909 7.68664C76.1218 7.86625 75.9119 8.12163 75.7879 8.42049C75.6639 8.71935 75.6313 9.04828 75.6942 9.36567C75.7572 9.68307 75.9128 9.97466 76.1415 10.2036C76.3701 10.4325 76.6615 10.5885 76.9788 10.6519C77.2962 10.7152 77.6251 10.683 77.9241 10.5593C78.2232 10.4357 78.4788 10.2262 78.6587 9.95723C78.8386 9.6883 78.9348 9.37206 78.935 9.04848C78.9351 8.83364 78.8929 8.62088 78.8108 8.42234C78.7287 8.2238 78.6083 8.04337 78.4565 7.89136C78.3047 7.73935 78.1244 7.61874 77.926 7.5364C77.7275 7.45406 77.5148 7.41161 77.3 7.41148ZM97.286 15.1485C96.9679 15.1477 96.6573 15.0527 96.3931 14.8756C96.129 14.6984 95.9233 14.447 95.8019 14.153C95.6805 13.859 95.6489 13.5357 95.7111 13.2238C95.7732 12.9119 95.9264 12.6254 96.1512 12.4004C96.376 12.1754 96.6624 12.0221 96.9743 11.9597C97.2862 11.8974 97.6095 11.9288 97.9036 12.05C98.1976 12.1712 98.4492 12.3768 98.6265 12.6408C98.8038 12.9048 98.899 13.2154 98.9 13.5335C98.902 13.746 98.8616 13.9569 98.7812 14.1536C98.7008 14.3504 98.582 14.5292 98.4318 14.6796C98.2815 14.8299 98.1028 14.9488 97.9061 15.0293C97.7093 15.1098 97.4985 15.1504 97.286 15.1485ZM97.295 12.0885C97.0074 12.0857 96.7255 12.1685 96.4851 12.3264C96.2447 12.4842 96.0567 12.71 95.9449 12.975C95.8332 13.24 95.8028 13.5322 95.8575 13.8145C95.9123 14.0969 96.0498 14.3565 96.2525 14.5605C96.4552 14.7645 96.714 14.9036 96.996 14.9601C97.278 15.0167 97.5704 14.9881 97.8361 14.878C98.1018 14.7679 98.3287 14.5813 98.4881 14.3419C98.6474 14.1025 98.732 13.8211 98.731 13.5335C98.7322 13.3441 98.6959 13.1564 98.6243 12.9812C98.5526 12.8059 98.447 12.6466 98.3136 12.5123C98.1801 12.378 98.0214 12.2714 97.8466 12.1986C97.6718 12.1259 97.4843 12.0885 97.295 12.0885ZM97.651 13.6985L98.106 14.3345H97.722L97.313 13.7515H96.962V14.3345H96.641V12.6485H97.392C97.785 12.6485 98.042 12.8485 98.042 13.1865C98.0477 13.3039 98.0118 13.4197 97.9407 13.5133C97.8696 13.6069 97.7677 13.6725 97.653 13.6985H97.651ZM97.38 12.9385H96.962V13.4715H97.38C97.588 13.4715 97.713 13.3715 97.713 13.2045C97.713 13.0375 97.587 12.9335 97.379 12.9335L97.38 12.9385Z" fill="#05073C"/>
</g>
</g>
</g>
</g>
<defs>
<clipPath id="clip0_2103_4499">
<rect width="100" height="30" fill="white" transform="translate(0 0.299805)"/>
</clipPath>
<clipPath id="clip1_2103_4499">
<rect width="100" height="30" fill="white" transform="translate(0 0.299805)"/>
</clipPath>
<clipPath id="clip2_2103_4499">
<rect width="99" height="30" fill="white" transform="translate(0.5 0.299805)"/>
</clipPath>
</defs>
</svg>
